

<svg width="120" height="140" viewBox="0 0 120 140" xmlns="http://www.w3.org/2000/svg">
  <!-- Hexagonal background -->
  <polygon points="60,10 105,35 105,85 60,110 15,85 15,35" 
           fill="#FFB3A7" 
           stroke="#E8A194" 
           stroke-width="2"/>
  
  <!-- Icon/Symbol -->
  <image x="45" y="30" width="30" height="30" href="https://raw.githubusercontent.com/Baga6312/Baga6312/refs/heads/main/assets/sql.svg"/>

    <g transform="translate(60, 45)">
    <!-- Lightbulb outline -->
    <circle cx="0" cy="-5" r="8" fill="none" stroke="#2C1810" stroke-width="1.5"/>
    <!-- Lightbulb base -->
    <rect x="-3" y="3" width="6" height="4" fill="none" stroke="#2C1810" stroke-width="1.5"/>
    <!-- Filament -->
    <path d="M-4,-8 L4,-2 M-4,-2 L4,-8" stroke="#2C1810" stroke-width="1"/>
  </g>



  
  <!-- Text -->
  <text x="60" y="75" text-anchor="middle" font-family="Arial, sans-serif" 
        font-size="10" font-weight="bold" fill="#2C1810">SQL</text>
  
  <!-- Stars -->
  <g transform="translate(65, 90)">
    <!-- Star 1 -->
    <polygon points="-13.5,-5 -11.5,-1 -7.5,-1 -10.5,2 -9.5,6 -13.5,3 -17.5,6 -16.5,2 -19.5,-1 -15.5,-1" 
             fill="#FFD700"/>
    <!-- Star 2 -->
    <polygon points="0.5,-5 2.5,-1 6.5,-1 3.5,2 4.5,6 0.5,3 -3.5,6 -2.5,2 -5.5,-1 -1.5,-1" 
             fill="#FFD700"/>
  </g>
</svg>
